STARTFONT 2.1
FONT -FontForge-Pixuf-Medium-R-Normal--8-80-75-75-P-43-ISO10646-1
SIZE 8 75 75
FONTBOUNDINGBOX 8 7 -1 -1
COMMENT "Generated by fontforge, http://fontforge.sourceforge.net"
COMMENT "erytau"
STARTPROPERTIES 39
FOUNDRY "FontForge"
FAMILY_NAME "Pixuf"
WEIGHT_NAME "Medium"
SLANT "R"
SETWIDTH_NAME "Normal"
ADD_STYLE_NAME ""
PIXEL_SIZE 8
POINT_SIZE 80
RESOLUTION_X 75
RESOLUTION_Y 75
SPACING "P"
AVERAGE_WIDTH 43
CHARSET_REGISTRY "ISO10646"
CHARSET_ENCODING "1"
FONTNAME_REGISTRY ""
CHARSET_COLLECTIONS "ISO10646-1"
FONT_NAME "Pixuf"
FACE_NAME "Pixuf"
COPYRIGHT "erytau"
FONT_VERSION "001.000"
FONT_ASCENT 6
FONT_DESCENT 2
UNDERLINE_POSITION -1
UNDERLINE_THICKNESS 1
X_HEIGHT 4
CAP_HEIGHT 5
RAW_ASCENT 750
RAW_DESCENT 250
NORM_SPACE 2
RELATIVE_WEIGHT 50
RELATIVE_SETWIDTH 50
SUPERSCRIPT_X 0
SUPERSCRIPT_Y 3
SUPERSCRIPT_SIZE 5
SUBSCRIPT_X 0
SUBSCRIPT_Y 1
SUBSCRIPT_SIZE 5
AVG_LOWERCASE_WIDTH 40
AVG_UPPERCASE_WIDTH 46
ENDPROPERTIES
CHARS 291
STARTCHAR space
ENCODING 32
SWIDTH 250 0
DWIDTH 2 0
BBX 1 1 0 0
BITMAP
00
ENDCHAR
STARTCHAR exclam
ENCODING 33
SWIDTH 250 0
DWIDTH 2 0
BBX 1 6 0 0
BITMAP
80
80
80
80
00
80
ENDCHAR
STARTCHAR quotedbl
ENCODING 34
SWIDTH 500 0
DWIDTH 4 0
BBX 3 2 0 3
BITMAP
A0
A0
ENDCHAR
STARTCHAR numbersign
ENCODING 35
SWIDTH 750 0
DWIDTH 6 0
BBX 5 6 0 0
BITMAP
50
F8
50
50
F8
50
ENDCHAR
STARTCHAR dollar
ENCODING 36
SWIDTH 500 0
DWIDTH 4 0
BBX 3 7 0 -1
BITMAP
40
60
80
E0
20
C0
40
ENDCHAR
STARTCHAR percent
ENCODING 37
SWIDTH 500 0
DWIDTH 4 0
BBX 3 6 0 0
BITMAP
A0
20
40
40
80
A0
ENDCHAR
STARTCHAR ampersand
ENCODING 38
SWIDTH 750 0
DWIDTH 6 0
BBX 5 5 0 0
BITMAP
60
90
78
90
70
ENDCHAR
STARTCHAR quotesingle
ENCODING 39
SWIDTH 250 0
DWIDTH 2 0
BBX 1 2 0 3
BITMAP
80
80
ENDCHAR
STARTCHAR parenleft
ENCODING 40
SWIDTH 375 0
DWIDTH 3 0
BBX 2 7 0 -1
BITMAP
40
80
80
80
80
80
40
ENDCHAR
STARTCHAR parenright
ENCODING 41
SWIDTH 375 0
DWIDTH 3 0
BBX 2 7 0 -1
BITMAP
80
40
40
40
40
40
80
ENDCHAR
STARTCHAR asterisk
ENCODING 42
SWIDTH 625 0
DWIDTH 5 0
BBX 3 3 1 1
BITMAP
40
A0
40
ENDCHAR
STARTCHAR plus
ENCODING 43
SWIDTH 500 0
DWIDTH 4 0
BBX 3 3 0 1
BITMAP
40
E0
40
ENDCHAR
STARTCHAR comma
ENCODING 44
SWIDTH 250 0
DWIDTH 2 0
BBX 1 2 0 -1
BITMAP
80
80
ENDCHAR
STARTCHAR hyphen
ENCODING 45
SWIDTH 500 0
DWIDTH 4 0
BBX 3 1 0 2
BITMAP
E0
ENDCHAR
STARTCHAR period
ENCODING 46
SWIDTH 250 0
DWIDTH 2 0
BBX 1 1 0 0
BITMAP
80
ENDCHAR
STARTCHAR slash
ENCODING 47
SWIDTH 500 0
DWIDTH 4 0
BBX 3 6 0 0
BITMAP
20
20
40
40
80
80
ENDCHAR
STARTCHAR zero
ENCODING 48
SWIDTH 500 0
DWIDTH 4 0
BBX 3 6 0 0
BITMAP
40
A0
A0
A0
A0
40
ENDCHAR
STARTCHAR one
ENCODING 49
SWIDTH 375 0
DWIDTH 3 0
BBX 2 6 0 0
BITMAP
40
C0
40
40
40
40
ENDCHAR
STARTCHAR two
ENCODING 50
SWIDTH 500 0
DWIDTH 4 0
BBX 3 6 0 0
BITMAP
C0
20
20
40
80
E0
ENDCHAR
STARTCHAR three
ENCODING 51
SWIDTH 500 0
DWIDTH 4 0
BBX 3 6 0 0
BITMAP
C0
20
40
20
20
C0
ENDCHAR
STARTCHAR four
ENCODING 52
SWIDTH 500 0
DWIDTH 4 0
BBX 3 6 0 0
BITMAP
20
60
A0
E0
20
20
ENDCHAR
STARTCHAR five
ENCODING 53
SWIDTH 500 0
DWIDTH 4 0
BBX 3 6 0 0
BITMAP
E0
80
C0
20
20
C0
ENDCHAR
STARTCHAR six
ENCODING 54
SWIDTH 500 0
DWIDTH 4 0
BBX 3 6 0 0
BITMAP
40
80
C0
A0
A0
40
ENDCHAR
STARTCHAR seven
ENCODING 55
SWIDTH 500 0
DWIDTH 4 0
BBX 3 6 0 0
BITMAP
E0
20
20
40
40
40
ENDCHAR
STARTCHAR eight
ENCODING 56
SWIDTH 500 0
DWIDTH 4 0
BBX 3 6 0 0
BITMAP
40
A0
40
A0
A0
40
ENDCHAR
STARTCHAR nine
ENCODING 57
SWIDTH 500 0
DWIDTH 4 0
BBX 3 6 0 0
BITMAP
40
A0
A0
60
20
40
ENDCHAR
STARTCHAR colon
ENCODING 58
SWIDTH 250 0
DWIDTH 2 0
BBX 1 4 0 0
BITMAP
80
00
00
80
ENDCHAR
STARTCHAR semicolon
ENCODING 59
SWIDTH 250 0
DWIDTH 2 0
BBX 1 5 0 -1
BITMAP
80
00
00
80
80
ENDCHAR
STARTCHAR less
ENCODING 60
SWIDTH 375 0
DWIDTH 3 0
BBX 2 3 0 1
BITMAP
40
80
40
ENDCHAR
STARTCHAR equal
ENCODING 61
SWIDTH 500 0
DWIDTH 4 0
BBX 3 3 0 1
BITMAP
E0
00
E0
ENDCHAR
STARTCHAR greater
ENCODING 62
SWIDTH 375 0
DWIDTH 3 0
BBX 2 3 0 1
BITMAP
80
40
80
ENDCHAR
STARTCHAR question
ENCODING 63
SWIDTH 500 0
DWIDTH 4 0
BBX 3 6 0 0
BITMAP
40
A0
20
40
00
40
ENDCHAR
STARTCHAR at
ENCODING 64
SWIDTH 625 0
DWIDTH 5 0
BBX 4 5 0 0
BITMAP
60
90
B0
B0
40
ENDCHAR
STARTCHAR A
ENCODING 65
SWIDTH 625 0
DWIDTH 5 0
BBX 4 6 0 0
BITMAP
60
90
90
90
F0
90
ENDCHAR
STARTCHAR B
ENCODING 66
SWIDTH 625 0
DWIDTH 5 0
BBX 4 6 0 0
BITMAP
E0
90
E0
90
90
E0
ENDCHAR
STARTCHAR C
ENCODING 67
SWIDTH 500 0
DWIDTH 4 0
BBX 3 6 0 0
BITMAP
60
80
80
80
80
60
ENDCHAR
STARTCHAR D
ENCODING 68
SWIDTH 625 0
DWIDTH 5 0
BBX 4 6 0 0
BITMAP
E0
90
90
90
90
E0
ENDCHAR
STARTCHAR E
ENCODING 69
SWIDTH 500 0
DWIDTH 4 0
BBX 3 6 0 0
BITMAP
E0
80
C0
80
80
E0
ENDCHAR
STARTCHAR F
ENCODING 70
SWIDTH 500 0
DWIDTH 4 0
BBX 3 6 0 0
BITMAP
60
80
C0
80
80
80
ENDCHAR
STARTCHAR G
ENCODING 71
SWIDTH 625 0
DWIDTH 5 0
BBX 4 6 0 0
BITMAP
70
80
80
80
90
70
ENDCHAR
STARTCHAR H
ENCODING 72
SWIDTH 625 0
DWIDTH 5 0
BBX 4 6 0 0
BITMAP
90
90
F0
90
90
90
ENDCHAR
STARTCHAR I
ENCODING 73
SWIDTH 250 0
DWIDTH 2 0
BBX 1 6 0 0
BITMAP
80
80
80
80
80
80
ENDCHAR
STARTCHAR J
ENCODING 74
SWIDTH 375 0
DWIDTH 3 0
BBX 2 6 0 0
BITMAP
40
40
40
40
40
80
ENDCHAR
STARTCHAR K
ENCODING 75
SWIDTH 625 0
DWIDTH 5 0
BBX 4 6 0 0
BITMAP
90
A0
C0
A0
90
90
ENDCHAR
STARTCHAR L
ENCODING 76
SWIDTH 500 0
DWIDTH 4 0
BBX 3 6 0 0
BITMAP
80
80
80
80
80
E0
ENDCHAR
STARTCHAR M
ENCODING 77
SWIDTH 750 0
DWIDTH 6 0
BBX 5 6 0 0
BITMAP
88
D8
A8
88
88
88
ENDCHAR
STARTCHAR N
ENCODING 78
SWIDTH 625 0
DWIDTH 5 0
BBX 4 6 0 0
BITMAP
90
D0
B0
90
90
90
ENDCHAR
STARTCHAR O
ENCODING 79
SWIDTH 625 0
DWIDTH 5 0
BBX 4 6 0 0
BITMAP
60
90
90
90
90
60
ENDCHAR
STARTCHAR P
ENCODING 80
SWIDTH 625 0
DWIDTH 5 0
BBX 4 6 0 0
BITMAP
E0
90
90
E0
80
80
ENDCHAR
STARTCHAR Q
ENCODING 81
SWIDTH 625 0
DWIDTH 5 0
BBX 4 6 0 0
BITMAP
60
90
90
90
60
10
ENDCHAR
STARTCHAR R
ENCODING 82
SWIDTH 625 0
DWIDTH 5 0
BBX 4 6 0 0
BITMAP
E0
90
90
E0
90
90
ENDCHAR
STARTCHAR S
ENCODING 83
SWIDTH 500 0
DWIDTH 4 0
BBX 3 6 0 0
BITMAP
60
80
E0
20
20
C0
ENDCHAR
STARTCHAR T
ENCODING 84
SWIDTH 500 0
DWIDTH 4 0
BBX 3 6 0 0
BITMAP
E0
40
40
40
40
40
ENDCHAR
STARTCHAR U
ENCODING 85
SWIDTH 625 0
DWIDTH 5 0
BBX 4 6 0 0
BITMAP
90
90
90
90
90
60
ENDCHAR
STARTCHAR V
ENCODING 86
SWIDTH 750 0
DWIDTH 6 0
BBX 5 6 0 0
BITMAP
88
88
88
50
50
20
ENDCHAR
STARTCHAR W
ENCODING 87
SWIDTH 750 0
DWIDTH 6 0
BBX 5 6 0 0
BITMAP
88
A8
A8
A8
A8
50
ENDCHAR
STARTCHAR X
ENCODING 88
SWIDTH 500 0
DWIDTH 4 0
BBX 3 6 0 0
BITMAP
A0
A0
40
40
A0
A0
ENDCHAR
STARTCHAR Y
ENCODING 89
SWIDTH 500 0
DWIDTH 4 0
BBX 3 6 0 0
BITMAP
A0
A0
A0
40
40
40
ENDCHAR
STARTCHAR Z
ENCODING 90
SWIDTH 500 0
DWIDTH 4 0
BBX 3 6 0 0
BITMAP
E0
20
40
40
80
E0
ENDCHAR
STARTCHAR bracketleft
ENCODING 91
SWIDTH 375 0
DWIDTH 3 0
BBX 2 7 0 -1
BITMAP
C0
80
80
80
80
80
C0
ENDCHAR
STARTCHAR backslash
ENCODING 92
SWIDTH 500 0
DWIDTH 4 0
BBX 3 6 0 0
BITMAP
80
80
40
40
20
20
ENDCHAR
STARTCHAR bracketright
ENCODING 93
SWIDTH 375 0
DWIDTH 3 0
BBX 2 7 0 -1
BITMAP
C0
40
40
40
40
40
C0
ENDCHAR
STARTCHAR asciicircum
ENCODING 94
SWIDTH 500 0
DWIDTH 4 0
BBX 3 2 0 1
BITMAP
40
A0
ENDCHAR
STARTCHAR underscore
ENCODING 95
SWIDTH 750 0
DWIDTH 6 0
BBX 6 1 -1 -1
BITMAP
FC
ENDCHAR
STARTCHAR grave
ENCODING 96
SWIDTH 250 0
DWIDTH 2 0
BBX 1 2 0 3
BITMAP
80
80
ENDCHAR
STARTCHAR a
ENCODING 97
SWIDTH 500 0
DWIDTH 4 0
BBX 3 5 0 0
BITMAP
60
A0
A0
A0
60
ENDCHAR
STARTCHAR b
ENCODING 98
SWIDTH 500 0
DWIDTH 4 0
BBX 3 6 0 0
BITMAP
80
C0
A0
A0
A0
C0
ENDCHAR
STARTCHAR c
ENCODING 99
SWIDTH 375 0
DWIDTH 3 0
BBX 2 5 0 0
BITMAP
40
80
80
80
40
ENDCHAR
STARTCHAR d
ENCODING 100
SWIDTH 500 0
DWIDTH 4 0
BBX 3 6 0 0
BITMAP
20
60
A0
A0
A0
60
ENDCHAR
STARTCHAR e
ENCODING 101
SWIDTH 500 0
DWIDTH 4 0
BBX 3 5 0 0
BITMAP
40
A0
E0
80
60
ENDCHAR
STARTCHAR f
ENCODING 102
SWIDTH 375 0
DWIDTH 3 0
BBX 2 6 0 0
BITMAP
40
80
80
C0
80
80
ENDCHAR
STARTCHAR g
ENCODING 103
SWIDTH 500 0
DWIDTH 4 0
BBX 3 6 0 -1
BITMAP
60
A0
A0
E0
20
C0
ENDCHAR
STARTCHAR h
ENCODING 104
SWIDTH 500 0
DWIDTH 4 0
BBX 3 6 0 0
BITMAP
80
C0
A0
A0
A0
A0
ENDCHAR
STARTCHAR i
ENCODING 105
SWIDTH 250 0
DWIDTH 2 0
BBX 1 6 0 0
BITMAP
80
00
80
80
80
80
ENDCHAR
STARTCHAR j
ENCODING 106
SWIDTH 375 0
DWIDTH 3 0
BBX 2 7 0 -1
BITMAP
40
00
40
40
40
40
80
ENDCHAR
STARTCHAR k
ENCODING 107
SWIDTH 500 0
DWIDTH 4 0
BBX 3 6 0 0
BITMAP
80
A0
A0
C0
A0
A0
ENDCHAR
STARTCHAR l
ENCODING 108
SWIDTH 375 0
DWIDTH 3 0
BBX 2 6 0 0
BITMAP
80
80
80
80
80
40
ENDCHAR
STARTCHAR m
ENCODING 109
SWIDTH 750 0
DWIDTH 6 0
BBX 5 5 0 0
BITMAP
D0
A8
A8
A8
A8
ENDCHAR
STARTCHAR n
ENCODING 110
SWIDTH 500 0
DWIDTH 4 0
BBX 3 5 0 0
BITMAP
C0
A0
A0
A0
A0
ENDCHAR
STARTCHAR o
ENCODING 111
SWIDTH 500 0
DWIDTH 4 0
BBX 3 5 0 0
BITMAP
40
A0
A0
A0
40
ENDCHAR
STARTCHAR p
ENCODING 112
SWIDTH 500 0
DWIDTH 4 0
BBX 3 6 0 -1
BITMAP
C0
A0
A0
C0
80
80
ENDCHAR
STARTCHAR q
ENCODING 113
SWIDTH 500 0
DWIDTH 4 0
BBX 3 6 0 -1
BITMAP
60
A0
A0
60
20
20
ENDCHAR
STARTCHAR r
ENCODING 114
SWIDTH 375 0
DWIDTH 3 0
BBX 2 5 0 0
BITMAP
40
80
80
80
80
ENDCHAR
STARTCHAR s
ENCODING 115
SWIDTH 500 0
DWIDTH 4 0
BBX 3 5 0 0
BITMAP
60
80
E0
20
C0
ENDCHAR
STARTCHAR t
ENCODING 116
SWIDTH 375 0
DWIDTH 3 0
BBX 2 6 0 0
BITMAP
80
C0
80
80
80
40
ENDCHAR
STARTCHAR u
ENCODING 117
SWIDTH 500 0
DWIDTH 4 0
BBX 3 5 0 0
BITMAP
A0
A0
A0
A0
60
ENDCHAR
STARTCHAR v
ENCODING 118
SWIDTH 500 0
DWIDTH 4 0
BBX 3 5 0 0
BITMAP
A0
A0
A0
A0
40
ENDCHAR
STARTCHAR w
ENCODING 119
SWIDTH 750 0
DWIDTH 6 0
BBX 5 5 0 0
BITMAP
88
A8
A8
A8
50
ENDCHAR
STARTCHAR x
ENCODING 120
SWIDTH 500 0
DWIDTH 4 0
BBX 3 5 0 0
BITMAP
A0
A0
40
A0
A0
ENDCHAR
STARTCHAR y
ENCODING 121
SWIDTH 500 0
DWIDTH 4 0
BBX 3 6 0 -1
BITMAP
A0
A0
A0
60
20
40
ENDCHAR
STARTCHAR z
ENCODING 122
SWIDTH 500 0
DWIDTH 4 0
BBX 3 5 0 0
BITMAP
E0
20
40
80
E0
ENDCHAR
STARTCHAR braceleft
ENCODING 123
SWIDTH 500 0
DWIDTH 4 0
BBX 3 7 0 -1
BITMAP
60
40
80
80
80
40
60
ENDCHAR
STARTCHAR bar
ENCODING 124
SWIDTH 250 0
DWIDTH 2 0
BBX 1 7 0 -1
BITMAP
80
80
80
80
80
80
80
ENDCHAR
STARTCHAR braceright
ENCODING 125
SWIDTH 500 0
DWIDTH 4 0
BBX 3 7 0 -1
BITMAP
C0
40
20
20
20
40
C0
ENDCHAR
STARTCHAR asciitilde
ENCODING 126
SWIDTH 625 0
DWIDTH 5 0
BBX 4 2 0 3
BITMAP
50
A0
ENDCHAR
STARTCHAR uni00A0
ENCODING 160
SWIDTH 250 0
DWIDTH 2 0
BBX 1 1 0 0
BITMAP
00
ENDCHAR
STARTCHAR exclamdown
ENCODING 161
SWIDTH 250 0
DWIDTH 2 0
BBX 1 5 0 -1
BITMAP
80
00
80
80
80
ENDCHAR
STARTCHAR cent
ENCODING 162
SWIDTH 500 0
DWIDTH 4 0
BBX 3 7 0 -1
BITMAP
40
60
40
C0
40
60
40
ENDCHAR
STARTCHAR sterling
ENCODING 163
SWIDTH 500 0
DWIDTH 4 0
BBX 3 5 0 0
BITMAP
60
80
C0
80
E0
ENDCHAR
STARTCHAR currency
ENCODING 164
SWIDTH 750 0
DWIDTH 6 0
BBX 5 5 0 0
BITMAP
88
70
50
70
88
ENDCHAR
STARTCHAR yen
ENCODING 165
SWIDTH 500 0
DWIDTH 4 0
BBX 3 5 0 0
BITMAP
A0
A0
40
E0
40
ENDCHAR
STARTCHAR brokenbar
ENCODING 166
SWIDTH 250 0
DWIDTH 2 0
BBX 1 6 0 -1
BITMAP
80
80
00
00
80
80
ENDCHAR
STARTCHAR section
ENCODING 167
SWIDTH 500 0
DWIDTH 4 0
BBX 3 5 0 0
BITMAP
60
C0
A0
60
C0
ENDCHAR
STARTCHAR dieresis
ENCODING 168
SWIDTH 500 0
DWIDTH 4 0
BBX 3 1 0 4
BITMAP
A0
ENDCHAR
STARTCHAR copyright
ENCODING 169
SWIDTH 875 0
DWIDTH 7 0
BBX 6 6 0 -1
BITMAP
78
94
A4
A4
94
78
ENDCHAR
STARTCHAR ordfeminine
ENCODING 170
SWIDTH 500 0
DWIDTH 4 0
BBX 3 3 0 2
BITMAP
60
A0
60
ENDCHAR
STARTCHAR guillemotleft
ENCODING 171
SWIDTH 750 0
DWIDTH 6 0
BBX 5 3 0 1
BITMAP
48
90
48
ENDCHAR
STARTCHAR logicalnot
ENCODING 172
SWIDTH 625 0
DWIDTH 5 0
BBX 4 3 0 1
BITMAP
F0
10
10
ENDCHAR
STARTCHAR registered
ENCODING 174
SWIDTH 875 0
DWIDTH 7 0
BBX 6 6 0 -1
BITMAP
78
94
A4
A4
A4
78
ENDCHAR
STARTCHAR macron
ENCODING 175
SWIDTH 750 0
DWIDTH 6 0
BBX 6 1 -1 4
BITMAP
FC
ENDCHAR
STARTCHAR degree
ENCODING 176
SWIDTH 500 0
DWIDTH 4 0
BBX 3 3 0 2
BITMAP
40
A0
40
ENDCHAR
STARTCHAR plusminus
ENCODING 177
SWIDTH 500 0
DWIDTH 4 0
BBX 3 4 0 0
BITMAP
40
E0
40
E0
ENDCHAR
STARTCHAR uni00B2
ENCODING 178
SWIDTH 500 0
DWIDTH 4 0
BBX 3 3 0 2
BITMAP
C0
40
E0
ENDCHAR
STARTCHAR uni00B3
ENCODING 179
SWIDTH 500 0
DWIDTH 4 0
BBX 3 3 0 2
BITMAP
C0
60
C0
ENDCHAR
STARTCHAR acute
ENCODING 180
SWIDTH 375 0
DWIDTH 3 0
BBX 2 2 0 3
BITMAP
40
80
ENDCHAR
STARTCHAR uni00B5
ENCODING 181
SWIDTH 500 0
DWIDTH 4 0
BBX 3 6 0 -1
BITMAP
A0
A0
A0
A0
E0
80
ENDCHAR
STARTCHAR paragraph
ENCODING 182
SWIDTH 750 0
DWIDTH 6 0
BBX 5 5 0 0
BITMAP
78
A8
A8
78
28
ENDCHAR
STARTCHAR periodcentered
ENCODING 183
SWIDTH 250 0
DWIDTH 2 0
BBX 1 1 0 2
BITMAP
80
ENDCHAR
STARTCHAR cedilla
ENCODING 184
SWIDTH 375 0
DWIDTH 3 0
BBX 2 2 0 -1
BITMAP
40
80
ENDCHAR
STARTCHAR uni00B9
ENCODING 185
SWIDTH 375 0
DWIDTH 3 0
BBX 2 3 0 2
BITMAP
C0
40
40
ENDCHAR
STARTCHAR ordmasculine
ENCODING 186
SWIDTH 500 0
DWIDTH 4 0
BBX 3 3 0 2
BITMAP
40
A0
40
ENDCHAR
STARTCHAR guillemotright
ENCODING 187
SWIDTH 750 0
DWIDTH 6 0
BBX 5 3 0 1
BITMAP
90
48
90
ENDCHAR
STARTCHAR onequarter
ENCODING 188
SWIDTH 1000 0
DWIDTH 8 0
BBX 7 5 0 0
BITMAP
C4
48
54
26
42
ENDCHAR
STARTCHAR onehalf
ENCODING 189
SWIDTH 1000 0
DWIDTH 8 0
BBX 7 5 0 0
BITMAP
C4
48
56
24
46
ENDCHAR
STARTCHAR threequarters
ENCODING 190
SWIDTH 1000 0
DWIDTH 8 0
BBX 7 5 0 0
BITMAP
C4
48
D4
26
42
ENDCHAR
STARTCHAR questiondown
ENCODING 191
SWIDTH 500 0
DWIDTH 4 0
BBX 3 5 0 -1
BITMAP
40
00
40
80
60
ENDCHAR
STARTCHAR Agrave
ENCODING 192
SWIDTH 625 0
DWIDTH 5 0
BBX 4 6 0 0
BITMAP
20
00
60
90
F0
90
ENDCHAR
STARTCHAR Aacute
ENCODING 193
SWIDTH 625 0
DWIDTH 5 0
BBX 4 6 0 0
BITMAP
40
00
60
90
F0
90
ENDCHAR
STARTCHAR Acircumflex
ENCODING 194
SWIDTH 625 0
DWIDTH 5 0
BBX 4 6 0 0
BITMAP
90
00
60
90
F0
90
ENDCHAR
STARTCHAR Atilde
ENCODING 195
SWIDTH 625 0
DWIDTH 5 0
BBX 4 6 0 0
BITMAP
A0
00
60
90
F0
90
ENDCHAR
STARTCHAR Adieresis
ENCODING 196
SWIDTH 625 0
DWIDTH 5 0
BBX 4 6 0 0
BITMAP
90
00
60
90
F0
90
ENDCHAR
STARTCHAR Aring
ENCODING 197
SWIDTH 625 0
DWIDTH 5 0
BBX 4 6 0 0
BITMAP
60
90
60
90
F0
90
ENDCHAR
STARTCHAR AE
ENCODING 198
SWIDTH 750 0
DWIDTH 6 0
BBX 5 6 0 0
BITMAP
78
A0
A0
B8
E0
B8
ENDCHAR
STARTCHAR Ccedilla
ENCODING 199
SWIDTH 500 0
DWIDTH 4 0
BBX 3 6 0 -1
BITMAP
60
80
80
80
60
40
ENDCHAR
STARTCHAR Egrave
ENCODING 200
SWIDTH 500 0
DWIDTH 4 0
BBX 3 6 0 0
BITMAP
40
00
E0
E0
80
E0
ENDCHAR
STARTCHAR Eacute
ENCODING 201
SWIDTH 500 0
DWIDTH 4 0
BBX 3 6 0 0
BITMAP
40
00
E0
E0
80
E0
ENDCHAR
STARTCHAR Ecircumflex
ENCODING 202
SWIDTH 500 0
DWIDTH 4 0
BBX 3 6 0 0
BITMAP
A0
00
E0
E0
80
E0
ENDCHAR
STARTCHAR Edieresis
ENCODING 203
SWIDTH 500 0
DWIDTH 4 0
BBX 3 6 0 0
BITMAP
A0
00
E0
E0
80
E0
ENDCHAR
STARTCHAR Igrave
ENCODING 204
SWIDTH 250 0
DWIDTH 2 0
BBX 1 6 0 0
BITMAP
80
00
80
80
80
80
ENDCHAR
STARTCHAR Iacute
ENCODING 205
SWIDTH 250 0
DWIDTH 2 0
BBX 1 6 0 0
BITMAP
80
00
80
80
80
80
ENDCHAR
STARTCHAR Icircumflex
ENCODING 206
SWIDTH 375 0
DWIDTH 3 0
BBX 3 6 -1 0
BITMAP
A0
00
40
40
40
40
ENDCHAR
STARTCHAR Idieresis
ENCODING 207
SWIDTH 375 0
DWIDTH 3 0
BBX 3 6 -1 0
BITMAP
A0
00
40
40
40
40
ENDCHAR
STARTCHAR Eth
ENCODING 208
SWIDTH 750 0
DWIDTH 6 0
BBX 5 5 0 0
BITMAP
70
48
E8
48
70
ENDCHAR
STARTCHAR Ntilde
ENCODING 209
SWIDTH 625 0
DWIDTH 5 0
BBX 4 6 0 0
BITMAP
A0
00
90
D0
B0
90
ENDCHAR
STARTCHAR Ograve
ENCODING 210
SWIDTH 625 0
DWIDTH 5 0
BBX 4 6 0 0
BITMAP
20
00
60
90
90
60
ENDCHAR
STARTCHAR Oacute
ENCODING 211
SWIDTH 625 0
DWIDTH 5 0
BBX 4 6 0 0
BITMAP
40
00
60
90
90
60
ENDCHAR
STARTCHAR Ocircumflex
ENCODING 212
SWIDTH 625 0
DWIDTH 5 0
BBX 4 6 0 0
BITMAP
90
00
60
90
90
60
ENDCHAR
STARTCHAR Otilde
ENCODING 213
SWIDTH 625 0
DWIDTH 5 0
BBX 4 6 0 0
BITMAP
A0
00
60
90
90
60
ENDCHAR
STARTCHAR Odieresis
ENCODING 214
SWIDTH 625 0
DWIDTH 5 0
BBX 4 6 0 0
BITMAP
90
00
60
90
90
60
ENDCHAR
STARTCHAR multiply
ENCODING 215
SWIDTH 500 0
DWIDTH 4 0
BBX 3 3 0 1
BITMAP
A0
40
A0
ENDCHAR
STARTCHAR Oslash
ENCODING 216
SWIDTH 625 0
DWIDTH 5 0
BBX 4 5 0 0
BITMAP
60
B0
F0
D0
60
ENDCHAR
STARTCHAR Ugrave
ENCODING 217
SWIDTH 625 0
DWIDTH 5 0
BBX 4 6 0 0
BITMAP
20
00
90
90
90
60
ENDCHAR
STARTCHAR Uacute
ENCODING 218
SWIDTH 625 0
DWIDTH 5 0
BBX 4 6 0 0
BITMAP
40
00
90
90
90
60
ENDCHAR
STARTCHAR Ucircumflex
ENCODING 219
SWIDTH 625 0
DWIDTH 5 0
BBX 4 6 0 0
BITMAP
90
00
90
90
90
60
ENDCHAR
STARTCHAR Udieresis
ENCODING 220
SWIDTH 625 0
DWIDTH 5 0
BBX 4 6 0 0
BITMAP
90
00
90
90
90
60
ENDCHAR
STARTCHAR Yacute
ENCODING 221
SWIDTH 500 0
DWIDTH 4 0
BBX 3 6 0 0
BITMAP
40
00
A0
A0
40
40
ENDCHAR
STARTCHAR Thorn
ENCODING 222
SWIDTH 625 0
DWIDTH 5 0
BBX 4 5 0 0
BITMAP
80
E0
90
E0
80
ENDCHAR
STARTCHAR germandbls
ENCODING 223
SWIDTH 625 0
DWIDTH 5 0
BBX 4 5 0 0
BITMAP
60
90
A0
90
A0
ENDCHAR
STARTCHAR agrave
ENCODING 224
SWIDTH 500 0
DWIDTH 4 0
BBX 3 6 0 0
BITMAP
80
40
00
60
A0
60
ENDCHAR
STARTCHAR aacute
ENCODING 225
SWIDTH 500 0
DWIDTH 4 0
BBX 3 6 0 0
BITMAP
20
40
00
60
A0
60
ENDCHAR
STARTCHAR acircumflex
ENCODING 226
SWIDTH 500 0
DWIDTH 4 0
BBX 3 6 0 0
BITMAP
40
A0
00
60
A0
60
ENDCHAR
STARTCHAR atilde
ENCODING 227
SWIDTH 500 0
DWIDTH 4 0
BBX 3 5 0 0
BITMAP
E0
00
60
A0
60
ENDCHAR
STARTCHAR adieresis
ENCODING 228
SWIDTH 500 0
DWIDTH 4 0
BBX 3 5 0 0
BITMAP
A0
00
60
A0
60
ENDCHAR
STARTCHAR aring
ENCODING 229
SWIDTH 500 0
DWIDTH 4 0
BBX 3 5 0 0
BITMAP
40
A0
60
A0
60
ENDCHAR
STARTCHAR ae
ENCODING 230
SWIDTH 750 0
DWIDTH 6 0
BBX 5 4 0 0
BITMAP
70
A8
B0
58
ENDCHAR
STARTCHAR ccedilla
ENCODING 231
SWIDTH 375 0
DWIDTH 3 0
BBX 2 5 0 -1
BITMAP
40
80
80
40
80
ENDCHAR
STARTCHAR egrave
ENCODING 232
SWIDTH 500 0
DWIDTH 4 0
BBX 3 6 0 0
BITMAP
80
40
00
40
C0
60
ENDCHAR
STARTCHAR eacute
ENCODING 233
SWIDTH 500 0
DWIDTH 4 0
BBX 3 6 0 0
BITMAP
20
40
00
40
C0
60
ENDCHAR
STARTCHAR ecircumflex
ENCODING 234
SWIDTH 500 0
DWIDTH 4 0
BBX 3 6 0 0
BITMAP
40
A0
00
40
C0
60
ENDCHAR
STARTCHAR edieresis
ENCODING 235
SWIDTH 500 0
DWIDTH 4 0
BBX 3 5 0 0
BITMAP
A0
00
40
C0
60
ENDCHAR
STARTCHAR igrave
ENCODING 236
SWIDTH 250 0
DWIDTH 2 0
BBX 2 6 -1 0
BITMAP
80
40
00
40
40
40
ENDCHAR
STARTCHAR iacute
ENCODING 237
SWIDTH 375 0
DWIDTH 3 0
BBX 2 6 0 0
BITMAP
40
80
00
80
80
80
ENDCHAR
STARTCHAR icircumflex
ENCODING 238
SWIDTH 375 0
DWIDTH 3 0
BBX 3 6 -1 0
BITMAP
40
A0
00
40
40
40
ENDCHAR
STARTCHAR idieresis
ENCODING 239
SWIDTH 375 0
DWIDTH 3 0
BBX 3 5 -1 0
BITMAP
A0
00
40
40
40
ENDCHAR
STARTCHAR eth
ENCODING 240
SWIDTH 625 0
DWIDTH 5 0
BBX 4 5 0 0
BITMAP
D0
60
A0
A0
40
ENDCHAR
STARTCHAR ntilde
ENCODING 241
SWIDTH 500 0
DWIDTH 4 0
BBX 3 5 0 0
BITMAP
E0
00
C0
A0
A0
ENDCHAR
STARTCHAR ograve
ENCODING 242
SWIDTH 500 0
DWIDTH 4 0
BBX 3 6 0 0
BITMAP
80
40
00
40
A0
40
ENDCHAR
STARTCHAR oacute
ENCODING 243
SWIDTH 500 0
DWIDTH 4 0
BBX 3 6 0 0
BITMAP
20
40
00
40
A0
40
ENDCHAR
STARTCHAR ocircumflex
ENCODING 244
SWIDTH 500 0
DWIDTH 4 0
BBX 3 6 0 0
BITMAP
40
A0
00
40
A0
40
ENDCHAR
STARTCHAR otilde
ENCODING 245
SWIDTH 500 0
DWIDTH 4 0
BBX 3 5 0 0
BITMAP
E0
00
40
A0
40
ENDCHAR
STARTCHAR odieresis
ENCODING 246
SWIDTH 500 0
DWIDTH 4 0
BBX 3 5 0 0
BITMAP
A0
00
40
A0
40
ENDCHAR
STARTCHAR divide
ENCODING 247
SWIDTH 500 0
DWIDTH 4 0
BBX 3 5 0 0
BITMAP
40
00
E0
00
40
ENDCHAR
STARTCHAR oslash
ENCODING 248
SWIDTH 500 0
DWIDTH 4 0
BBX 3 4 0 0
BITMAP
40
E0
E0
40
ENDCHAR
STARTCHAR ugrave
ENCODING 249
SWIDTH 500 0
DWIDTH 4 0
BBX 3 6 0 0
BITMAP
80
40
00
A0
A0
60
ENDCHAR
STARTCHAR uacute
ENCODING 250
SWIDTH 500 0
DWIDTH 4 0
BBX 3 6 0 0
BITMAP
20
40
00
A0
A0
60
ENDCHAR
STARTCHAR ucircumflex
ENCODING 251
SWIDTH 500 0
DWIDTH 4 0
BBX 3 6 0 0
BITMAP
40
A0
00
A0
A0
60
ENDCHAR
STARTCHAR udieresis
ENCODING 252
SWIDTH 500 0
DWIDTH 4 0
BBX 3 5 0 0
BITMAP
A0
00
A0
A0
60
ENDCHAR
STARTCHAR yacute
ENCODING 253
SWIDTH 500 0
DWIDTH 4 0
BBX 3 7 0 -1
BITMAP
20
40
00
A0
A0
60
40
ENDCHAR
STARTCHAR thorn
ENCODING 254
SWIDTH 500 0
DWIDTH 4 0
BBX 3 6 0 -1
BITMAP
80
C0
A0
A0
C0
80
ENDCHAR
STARTCHAR ydieresis
ENCODING 255
SWIDTH 500 0
DWIDTH 4 0
BBX 3 6 0 -1
BITMAP
A0
00
A0
A0
60
40
ENDCHAR
STARTCHAR dotlessi
ENCODING 305
SWIDTH 250 0
DWIDTH 2 0
BBX 1 3 0 0
BITMAP
80
80
80
ENDCHAR
STARTCHAR IJ
ENCODING 306
SWIDTH 500 0
DWIDTH 4 0
BBX 3 5 0 0
BITMAP
A0
A0
A0
A0
C0
ENDCHAR
STARTCHAR ij
ENCODING 307
SWIDTH 500 0
DWIDTH 4 0
BBX 3 6 0 -1
BITMAP
A0
00
A0
A0
A0
40
ENDCHAR
STARTCHAR Lslash
ENCODING 321
SWIDTH 625 0
DWIDTH 5 0
BBX 4 5 0 0
BITMAP
40
60
C0
40
70
ENDCHAR
STARTCHAR lslash
ENCODING 322
SWIDTH 500 0
DWIDTH 4 0
BBX 3 5 0 0
BITMAP
40
60
C0
40
40
ENDCHAR
STARTCHAR Eng
ENCODING 330
SWIDTH 625 0
DWIDTH 5 0
BBX 4 6 0 -1
BITMAP
90
D0
B0
90
90
20
ENDCHAR
STARTCHAR eng
ENCODING 331
SWIDTH 500 0
DWIDTH 4 0
BBX 3 5 0 -1
BITMAP
C0
A0
A0
A0
40
ENDCHAR
STARTCHAR OE
ENCODING 338
SWIDTH 750 0
DWIDTH 6 0
BBX 5 5 0 0
BITMAP
78
A0
B8
A0
78
ENDCHAR
STARTCHAR oe
ENCODING 339
SWIDTH 750 0
DWIDTH 6 0
BBX 5 4 0 0
BITMAP
50
A8
B0
58
ENDCHAR
STARTCHAR Scaron
ENCODING 352
SWIDTH 500 0
DWIDTH 4 0
BBX 3 6 0 0
BITMAP
40
00
60
C0
20
C0
ENDCHAR
STARTCHAR scaron
ENCODING 353
SWIDTH 500 0
DWIDTH 4 0
BBX 3 6 0 0
BITMAP
A0
40
00
60
40
C0
ENDCHAR
STARTCHAR Ydieresis
ENCODING 376
SWIDTH 500 0
DWIDTH 4 0
BBX 3 6 0 0
BITMAP
A0
00
A0
A0
40
40
ENDCHAR
STARTCHAR Zcaron
ENCODING 381
SWIDTH 500 0
DWIDTH 4 0
BBX 3 6 0 0
BITMAP
40
00
E0
40
80
E0
ENDCHAR
STARTCHAR zcaron
ENCODING 382
SWIDTH 500 0
DWIDTH 4 0
BBX 3 6 0 0
BITMAP
A0
40
00
E0
40
E0
ENDCHAR
STARTCHAR longs
ENCODING 383
SWIDTH 375 0
DWIDTH 3 0
BBX 2 5 0 0
BITMAP
40
80
80
80
80
ENDCHAR
STARTCHAR florin
ENCODING 402
SWIDTH 500 0
DWIDTH 4 0
BBX 3 6 0 -1
BITMAP
20
40
E0
40
40
80
ENDCHAR
STARTCHAR uni0237
ENCODING 567
SWIDTH 250 0
DWIDTH 2 0
BBX 2 4 -1 -1
BITMAP
40
40
40
80
ENDCHAR
STARTCHAR circumflex
ENCODING 710
SWIDTH 500 0
DWIDTH 4 0
BBX 3 2 0 3
BITMAP
40
A0
ENDCHAR
STARTCHAR caron
ENCODING 711
SWIDTH 500 0
DWIDTH 4 0
BBX 3 2 0 3
BITMAP
A0
40
ENDCHAR
STARTCHAR uni02CA
ENCODING 714
SWIDTH 375 0
DWIDTH 3 0
BBX 2 2 0 3
BITMAP
40
80
ENDCHAR
STARTCHAR uni02CB
ENCODING 715
SWIDTH 375 0
DWIDTH 3 0
BBX 2 2 0 3
BITMAP
80
40
ENDCHAR
STARTCHAR breve
ENCODING 728
SWIDTH 625 0
DWIDTH 5 0
BBX 4 2 0 3
BITMAP
90
60
ENDCHAR
STARTCHAR dotaccent
ENCODING 729
SWIDTH 250 0
DWIDTH 2 0
BBX 1 1 0 4
BITMAP
80
ENDCHAR
STARTCHAR ring
ENCODING 730
SWIDTH 500 0
DWIDTH 4 0
BBX 3 3 0 2
BITMAP
40
A0
40
ENDCHAR
STARTCHAR ogonek
ENCODING 731
SWIDTH 375 0
DWIDTH 3 0
BBX 2 2 0 -1
BITMAP
80
40
ENDCHAR
STARTCHAR tilde
ENCODING 732
SWIDTH 625 0
DWIDTH 5 0
BBX 4 2 0 3
BITMAP
50
A0
ENDCHAR
STARTCHAR hungarumlaut
ENCODING 733
SWIDTH 625 0
DWIDTH 5 0
BBX 4 2 0 3
BITMAP
50
A0
ENDCHAR
STARTCHAR Omega
ENCODING 937
SWIDTH 750 0
DWIDTH 6 0
BBX 5 5 0 0
BITMAP
70
88
88
50
D8
ENDCHAR
STARTCHAR pi
ENCODING 960
SWIDTH 500 0
DWIDTH 4 0
BBX 3 5 0 0
BITMAP
E0
A0
A0
A0
A0
ENDCHAR
STARTCHAR uni2010
ENCODING 8208
SWIDTH 500 0
DWIDTH 4 0
BBX 3 1 0 2
BITMAP
E0
ENDCHAR
STARTCHAR uni2011
ENCODING 8209
SWIDTH 500 0
DWIDTH 4 0
BBX 3 1 0 2
BITMAP
E0
ENDCHAR
STARTCHAR figuredash
ENCODING 8210
SWIDTH 500 0
DWIDTH 4 0
BBX 3 1 0 2
BITMAP
E0
ENDCHAR
STARTCHAR endash
ENCODING 8211
SWIDTH 625 0
DWIDTH 5 0
BBX 4 1 0 2
BITMAP
F0
ENDCHAR
STARTCHAR emdash
ENCODING 8212
SWIDTH 750 0
DWIDTH 6 0
BBX 5 1 0 2
BITMAP
F8
ENDCHAR
STARTCHAR afii00208
ENCODING 8213
SWIDTH 750 0
DWIDTH 6 0
BBX 6 1 -1 2
BITMAP
FC
ENDCHAR
STARTCHAR uni2016
ENCODING 8214
SWIDTH 500 0
DWIDTH 4 0
BBX 3 6 0 -1
BITMAP
A0
A0
A0
A0
A0
A0
ENDCHAR
STARTCHAR underscoredbl
ENCODING 8215
SWIDTH 750 0
DWIDTH 6 0
BBX 6 3 -1 -1
BITMAP
FC
00
FC
ENDCHAR
STARTCHAR quoteleft
ENCODING 8216
SWIDTH 375 0
DWIDTH 3 0
BBX 2 2 0 3
BITMAP
80
40
ENDCHAR
STARTCHAR quoteright
ENCODING 8217
SWIDTH 375 0
DWIDTH 3 0
BBX 2 2 0 3
BITMAP
40
80
ENDCHAR
STARTCHAR quotesinglbase
ENCODING 8218
SWIDTH 375 0
DWIDTH 3 0
BBX 2 2 0 -1
BITMAP
40
80
ENDCHAR
STARTCHAR quotereversed
ENCODING 8219
SWIDTH 375 0
DWIDTH 3 0
BBX 2 2 0 3
BITMAP
80
40
ENDCHAR
STARTCHAR quotedblleft
ENCODING 8220
SWIDTH 625 0
DWIDTH 5 0
BBX 4 2 0 3
BITMAP
A0
50
ENDCHAR
STARTCHAR quotedblright
ENCODING 8221
SWIDTH 625 0
DWIDTH 5 0
BBX 4 2 0 3
BITMAP
50
A0
ENDCHAR
STARTCHAR quotedblbase
ENCODING 8222
SWIDTH 625 0
DWIDTH 5 0
BBX 4 2 0 -1
BITMAP
50
A0
ENDCHAR
STARTCHAR uni201F
ENCODING 8223
SWIDTH 625 0
DWIDTH 5 0
BBX 4 2 0 3
BITMAP
A0
50
ENDCHAR
STARTCHAR dagger
ENCODING 8224
SWIDTH 500 0
DWIDTH 4 0
BBX 3 5 0 0
BITMAP
40
E0
40
40
40
ENDCHAR
STARTCHAR daggerdbl
ENCODING 8225
SWIDTH 500 0
DWIDTH 4 0
BBX 3 5 0 0
BITMAP
40
E0
40
E0
40
ENDCHAR
STARTCHAR bullet
ENCODING 8226
SWIDTH 500 0
DWIDTH 4 0
BBX 3 3 0 1
BITMAP
E0
E0
E0
ENDCHAR
STARTCHAR uni2023
ENCODING 8227
SWIDTH 500 0
DWIDTH 4 0
BBX 3 3 0 1
BITMAP
C0
E0
C0
ENDCHAR
STARTCHAR onedotenleader
ENCODING 8228
SWIDTH 250 0
DWIDTH 2 0
BBX 1 1 0 0
BITMAP
80
ENDCHAR
STARTCHAR twodotenleader
ENCODING 8229
SWIDTH 500 0
DWIDTH 4 0
BBX 3 1 0 0
BITMAP
A0
ENDCHAR
STARTCHAR ellipsis
ENCODING 8230
SWIDTH 750 0
DWIDTH 6 0
BBX 5 1 0 0
BITMAP
A8
ENDCHAR
STARTCHAR uni2027
ENCODING 8231
SWIDTH 250 0
DWIDTH 2 0
BBX 1 1 0 2
BITMAP
80
ENDCHAR
STARTCHAR perthousand
ENCODING 8240
SWIDTH 1000 0
DWIDTH 8 0
BBX 7 5 0 0
BITMAP
C8
D0
20
5A
9A
ENDCHAR
STARTCHAR uni2031
ENCODING 8241
SWIDTH 1000 0
DWIDTH 8 0
BBX 7 5 0 0
BITMAP
C8
D0
20
5A
9A
ENDCHAR
STARTCHAR guilsinglleft
ENCODING 8249
SWIDTH 375 0
DWIDTH 3 0
BBX 2 3 0 1
BITMAP
40
80
40
ENDCHAR
STARTCHAR guilsinglright
ENCODING 8250
SWIDTH 375 0
DWIDTH 3 0
BBX 2 3 0 1
BITMAP
80
40
80
ENDCHAR
STARTCHAR exclamdbl
ENCODING 8252
SWIDTH 500 0
DWIDTH 4 0
BBX 3 5 0 0
BITMAP
A0
A0
A0
00
A0
ENDCHAR
STARTCHAR uni203D
ENCODING 8253
SWIDTH 500 0
DWIDTH 4 0
BBX 3 5 0 0
BITMAP
C0
60
40
00
40
ENDCHAR
STARTCHAR fraction
ENCODING 8260
SWIDTH 625 0
DWIDTH 5 0
BBX 4 4 0 0
BITMAP
10
20
40
80
ENDCHAR
STARTCHAR Euro
ENCODING 8364
SWIDTH 625 0
DWIDTH 5 0
BBX 4 6 0 0
BITMAP
30
C0
40
40
C0
30
ENDCHAR
STARTCHAR uni2117
ENCODING 8471
SWIDTH 875 0
DWIDTH 7 0
BBX 6 6 0 -1
BITMAP
78
B4
AC
B4
A4
78
ENDCHAR
STARTCHAR uni2120
ENCODING 8480
SWIDTH 875 0
DWIDTH 7 0
BBX 6 3 0 2
BITMAP
74
5C
D4
ENDCHAR
STARTCHAR trademark
ENCODING 8482
SWIDTH 875 0
DWIDTH 7 0
BBX 6 3 0 2
BITMAP
F4
5C
54
ENDCHAR
STARTCHAR uni2126
ENCODING 8486
SWIDTH 750 0
DWIDTH 6 0
BBX 5 5 0 0
BITMAP
70
88
88
50
D8
ENDCHAR
STARTCHAR uni2127
ENCODING 8487
SWIDTH 750 0
DWIDTH 6 0
BBX 5 5 0 0
BITMAP
D8
50
88
88
70
ENDCHAR
STARTCHAR partialdiff
ENCODING 8706
SWIDTH 500 0
DWIDTH 4 0
BBX 3 5 0 0
BITMAP
C0
60
A0
A0
40
ENDCHAR
STARTCHAR uni2206
ENCODING 8710
SWIDTH 750 0
DWIDTH 6 0
BBX 5 5 0 0
BITMAP
20
50
50
88
F8
ENDCHAR
STARTCHAR gradient
ENCODING 8711
SWIDTH 750 0
DWIDTH 6 0
BBX 5 5 0 0
BITMAP
F8
88
50
50
20
ENDCHAR
STARTCHAR product
ENCODING 8719
SWIDTH 750 0
DWIDTH 6 0
BBX 5 6 0 -1
BITMAP
F8
50
50
50
50
50
ENDCHAR
STARTCHAR uni2210
ENCODING 8720
SWIDTH 750 0
DWIDTH 6 0
BBX 5 6 0 -1
BITMAP
50
50
50
50
50
F8
ENDCHAR
STARTCHAR summation
ENCODING 8721
SWIDTH 625 0
DWIDTH 5 0
BBX 4 6 0 -1
BITMAP
F0
40
20
20
40
F0
ENDCHAR
STARTCHAR minus
ENCODING 8722
SWIDTH 500 0
DWIDTH 4 0
BBX 3 1 0 2
BITMAP
E0
ENDCHAR
STARTCHAR radical
ENCODING 8730
SWIDTH 750 0
DWIDTH 6 0
BBX 5 5 0 0
BITMAP
18
20
20
C0
40
ENDCHAR
STARTCHAR infinity
ENCODING 8734
SWIDTH 750 0
DWIDTH 6 0
BBX 5 3 0 1
BITMAP
50
A8
50
ENDCHAR
STARTCHAR integral
ENCODING 8747
SWIDTH 500 0
DWIDTH 4 0
BBX 3 6 0 -1
BITMAP
20
40
40
40
40
80
ENDCHAR
STARTCHAR approxequal
ENCODING 8776
SWIDTH 625 0
DWIDTH 5 0
BBX 4 5 0 0
BITMAP
50
A0
00
50
A0
ENDCHAR
STARTCHAR notequal
ENCODING 8800
SWIDTH 500 0
DWIDTH 4 0
BBX 3 5 0 0
BITMAP
20
E0
40
E0
80
ENDCHAR
STARTCHAR lessequal
ENCODING 8804
SWIDTH 375 0
DWIDTH 3 0
BBX 2 4 0 0
BITMAP
40
80
40
C0
ENDCHAR
STARTCHAR greaterequal
ENCODING 8805
SWIDTH 375 0
DWIDTH 3 0
BBX 2 4 0 0
BITMAP
80
40
80
C0
ENDCHAR
STARTCHAR uni25C6
ENCODING 9670
SWIDTH 750 0
DWIDTH 6 0
BBX 5 5 0 0
BITMAP
20
70
F8
70
20
ENDCHAR
STARTCHAR uni25C7
ENCODING 9671
SWIDTH 750 0
DWIDTH 6 0
BBX 5 5 0 0
BITMAP
20
50
88
50
20
ENDCHAR
STARTCHAR lozenge
ENCODING 9674
SWIDTH 750 0
DWIDTH 6 0
BBX 5 5 0 0
BITMAP
20
50
88
50
20
ENDCHAR
STARTCHAR uni3000
ENCODING 12288
SWIDTH 1000 0
DWIDTH 8 0
BBX 1 1 0 0
BITMAP
00
ENDCHAR
STARTCHAR uniF700
ENCODING 63232
SWIDTH 625 0
DWIDTH 5 0
BBX 4 6 0 0
BITMAP
A0
00
A0
C0
A0
90
ENDCHAR
STARTCHAR uniF701
ENCODING 63233
SWIDTH 500 0
DWIDTH 4 0
BBX 3 6 0 0
BITMAP
E0
00
80
A0
C0
A0
ENDCHAR
STARTCHAR uniF702
ENCODING 63234
SWIDTH 875 0
DWIDTH 7 0
BBX 6 5 0 0
BITMAP
90
90
90
90
FC
ENDCHAR
STARTCHAR uniF703
ENCODING 63235
SWIDTH 500 0
DWIDTH 4 0
BBX 3 5 0 0
BITMAP
A0
A0
A0
A0
A0
ENDCHAR
STARTCHAR uniF704
ENCODING 63236
SWIDTH 750 0
DWIDTH 6 0
BBX 5 6 0 0
BITMAP
B0
00
88
D8
A8
88
ENDCHAR
STARTCHAR uniF705
ENCODING 63237
SWIDTH 750 0
DWIDTH 6 0
BBX 5 6 0 0
BITMAP
48
B0
00
D0
A8
A8
ENDCHAR
STARTCHAR uniFB00
ENCODING 64256
SWIDTH 625 0
DWIDTH 5 0
BBX 4 5 0 0
BITMAP
50
F0
A0
A0
A0
ENDCHAR
STARTCHAR uniFB01
ENCODING 64257
SWIDTH 500 0
DWIDTH 4 0
BBX 3 5 0 0
BITMAP
40
C0
A0
A0
A0
ENDCHAR
STARTCHAR uniFB02
ENCODING 64258
SWIDTH 500 0
DWIDTH 4 0
BBX 3 5 0 0
BITMAP
60
E0
A0
A0
A0
ENDCHAR
STARTCHAR uniFB03
ENCODING 64259
SWIDTH 750 0
DWIDTH 6 0
BBX 5 5 0 0
BITMAP
50
F0
A8
A8
A8
ENDCHAR
STARTCHAR uniFB04
ENCODING 64260
SWIDTH 750 0
DWIDTH 6 0
BBX 5 5 0 0
BITMAP
58
F8
A8
A8
A8
ENDCHAR
STARTCHAR uniFB05
ENCODING 64261
SWIDTH 625 0
DWIDTH 5 0
BBX 4 5 0 0
BITMAP
60
B0
A0
A0
90
ENDCHAR
STARTCHAR uniFB06
ENCODING 64262
SWIDTH 875 0
DWIDTH 7 0
BBX 6 5 0 0
BITMAP
18
6C
C8
68
C4
ENDCHAR
STARTCHAR uniFB07
ENCODING 64263
SWIDTH 750 0
DWIDTH 6 0
BBX 5 5 0 0
BITMAP
30
58
90
90
48
ENDCHAR
STARTCHAR .notdef
ENCODING -1
SWIDTH 365 0
DWIDTH 3 0
BBX 3 6 0 0
BITMAP
E0
A0
A0
A0
A0
E0
ENDCHAR
STARTCHAR .null
ENCODING -1
SWIDTH 0 0
DWIDTH 0 0
BBX 1 1 0 0
BITMAP
00
ENDCHAR
STARTCHAR nonmarkingreturn
ENCODING -1
SWIDTH 333 0
DWIDTH 3 0
BBX 1 1 0 0
BITMAP
00
ENDCHAR
ENDFONT
